<mxfile host="65bd71144e">
    <diagram name="Page-1" id="jrbcKWjUXtHWEweP4JLH">
        <mxGraphModel dx="1089" dy="525" grid="1" gridSize="10" guides="1" tooltips="1" connect="1" arrows="1" fold="1" page="1" pageScale="1" pageWidth="827" pageHeight="1169" math="0" shadow="0">
            <root>
                <mxCell id="0"/>
                <mxCell id="1" parent="0"/>
                <mxCell id="Tp5uIXhHnIdLOXXPTNfK-21" style="edgeStyle=orthogonalEdgeStyle;rounded=0;orthogonalLoop=1;jettySize=auto;html=1;fontSize=12;" parent="1" source="Tp5uIXhHnIdLOXXPTNfK-7" target="Tp5uIXhHnIdLOXXPTNfK-10" edge="1">
                    <mxGeometry relative="1" as="geometry"/>
                </mxCell>
                <mxCell id="Tp5uIXhHnIdLOXXPTNfK-7" value="" style="fillColor=#ffffff;strokeColor=#dddddd;shadow=1;strokeWidth=1;rounded=1;absoluteArcSize=1;arcSize=2;fontSize=12;" parent="1" vertex="1">
                    <mxGeometry x="650" y="341" width="100" height="60" as="geometry"/>
                </mxCell>
                <mxCell id="Tp5uIXhHnIdLOXXPTNfK-8" value="Firebase" style="sketch=0;dashed=0;connectable=0;html=1;fillColor=#5184F3;strokeColor=none;shape=mxgraph.gcp2.firebase;part=1;labelPosition=right;verticalLabelPosition=middle;align=left;verticalAlign=middle;spacingLeft=5;fontColor=#999999;fontSize=12;" parent="Tp5uIXhHnIdLOXXPTNfK-7" vertex="1">
                    <mxGeometry width="32.4" height="45" relative="1" as="geometry">
                        <mxPoint x="5" y="7" as="offset"/>
                    </mxGeometry>
                </mxCell>
                <mxCell id="7" style="edgeStyle=none;html=1;fontSize=12;" edge="1" parent="1" source="Tp5uIXhHnIdLOXXPTNfK-10" target="5">
                    <mxGeometry relative="1" as="geometry">
                        <mxPoint x="390" y="320" as="sourcePoint"/>
                    </mxGeometry>
                </mxCell>
                <mxCell id="8" value="&lt;div&gt;Get stock price&lt;/div&gt;" style="edgeLabel;html=1;align=center;verticalAlign=middle;resizable=0;points=[];fontSize=12;" vertex="1" connectable="0" parent="7">
                    <mxGeometry x="0.1837" y="-1" relative="1" as="geometry">
                        <mxPoint as="offset"/>
                    </mxGeometry>
                </mxCell>
                <mxCell id="Tp5uIXhHnIdLOXXPTNfK-10" value="&lt;span&gt;OCI Instance&lt;/span&gt;" style="verticalLabelPosition=bottom;sketch=0;aspect=fixed;html=1;verticalAlign=top;strokeColor=none;align=center;outlineConnect=0;shape=mxgraph.citrix.web_server;fontSize=12;" parent="1" vertex="1">
                    <mxGeometry x="375" y="326" width="76.5" height="90" as="geometry"/>
                </mxCell>
                <mxCell id="kbrSmJQxyfpTLxWVwsqB-3" style="edgeStyle=orthogonalEdgeStyle;rounded=0;orthogonalLoop=1;jettySize=auto;html=1;fontSize=12;" parent="1" source="Tp5uIXhHnIdLOXXPTNfK-14" target="Tp5uIXhHnIdLOXXPTNfK-10" edge="1">
                    <mxGeometry relative="1" as="geometry"/>
                </mxCell>
                <mxCell id="Tp5uIXhHnIdLOXXPTNfK-14" value="&lt;font&gt;Client&lt;/font&gt;" style="sketch=0;pointerEvents=1;shadow=0;dashed=0;html=1;strokeColor=none;fillColor=#505050;labelPosition=center;verticalLabelPosition=bottom;verticalAlign=top;outlineConnect=0;align=center;shape=mxgraph.office.devices.mac_client;fontSize=12;" parent="1" vertex="1">
                    <mxGeometry x="110" y="347" width="58" height="48" as="geometry"/>
                </mxCell>
                <mxCell id="5" value="" style="ellipse;shape=cloud;whiteSpace=wrap;html=1;fontSize=12;" vertex="1" parent="1">
                    <mxGeometry x="354" y="50" width="120" height="80" as="geometry"/>
                </mxCell>
                <mxCell id="9" value="External Stock Market API" style="text;html=1;align=center;verticalAlign=middle;resizable=0;points=[];autosize=1;strokeColor=none;fillColor=none;fontSize=12;" vertex="1" parent="1">
                    <mxGeometry x="334" y="30" width="160" height="30" as="geometry"/>
                </mxCell>
                <mxCell id="10" value="User, order data" style="text;html=1;align=center;verticalAlign=middle;resizable=0;points=[];autosize=1;strokeColor=none;fillColor=none;" vertex="1" parent="1">
                    <mxGeometry x="645" y="401" width="110" height="30" as="geometry"/>
                </mxCell>
            </root>
        </mxGraphModel>
    </diagram>
</mxfile>